0
SECTION
2
HEADER
9
$INSUNITS
70
4
9
$ACADVER
1
AC1014
9
$HANDSEED
5
FFFF
0
ENDSEC
0
SECTION
2
TABLES
0
TABLE
2
VPORT
5
8
100
AcDbSymbolTable
0
ENDTAB
0
TABLE
2
LTYPE
5
5
100
AcDbSymbolTable
0
LTYPE
5
14
100
AcDbSymbolTableRecord
100
AcDbLinetypeTableRecord
2
BYBLOCK
70
0
0
LTYPE
5
15
100
AcDbSymbolTableRecord
100
AcDbLinetypeTableRecord
2
BYLAYER
70
0
0
ENDTAB
0
TABLE
2
LAYER
5
2
100
AcDbSymbolTable
70
2
0
LAYER
5
50
100
AcDbSymbolTableRecord
100
AcDbLayerTableRecord
2
0
70
0
6
CONTINUOUS
0
ENDTAB
0
TABLE
2
STYLE
5
3
100
AcDbSymbolTable
70
1
0
STYLE
5
11
100
AcDbSymbolTableRecord
100
AcDbTextStyleTableRecord
2
STANDARD
70
0
0
ENDTAB
0
TABLE
2
VIEW
5
6
100
AcDbSymbolTable
70
0
0
ENDTAB
0
TABLE
2
UCS
5
7
100
AcDbSymbolTable
70
0
0
ENDTAB
0
TABLE
2
APPID
5
9
100
AcDbSymbolTable
70
2
0
APPID
5
12
100
AcDbSymbolTableRecord
100
AcDbRegAppTableRecord
2
ACAD
70
0
0
ENDTAB
0
TABLE
2
DIMSTYLE
5
A
100
AcDbSymbolTable
70
1
0
ENDTAB
0
TABLE
2
BLOCK_RECORD
5
1
100
AcDbSymbolTable
70
1
0
BLOCK_RECORD
5
1F
100
AcDbSymbolTableRecord
100
AcDbBlockTableRecord
2
*MODEL_SPACE
0
BLOCK_RECORD
5
1B
100
AcDbSymbolTableRecord
100
AcDbBlockTableRecord
2
*PAPER_SPACE
0
ENDTAB
0
ENDSEC
0
SECTION
2
BLOCKS
0
BLOCK
5
20
100
AcDbEntity
100
AcDbBlockBegin
2
*MODEL_SPACE
0
ENDBLK
5
21
100
AcDbEntity
100
AcDbBlockEnd
0
BLOCK
5
1C
100
AcDbEntity
100
AcDbBlockBegin
2
*PAPER_SPACE
0
ENDBLK
5
1D
100
AcDbEntity
100
AcDbBlockEnd
0
ENDSEC
0
SECTION
2
ENTITIES
0
LINE
5
100
100
AcDbEntity
8
0
100
AcDbLine
10
56.809599999999691
20
127.68011986515269
30
0
11
56.809600000000003
21
128.69200000000001
31
0
0
LINE
5
101
100
AcDbEntity
8
0
100
AcDbLine
10
98.222500000055661
20
130.40835260744302
30
0
11
98.222499999999997
21
129.15899999999999
31
0
0
LINE
5
102
100
AcDbEntity
8
0
100
AcDbLine
10
128.68100000000001
20
1.6012800000000003
30
0
11
140.917
21
22.814800000000002
31
0
0
LINE
5
103
100
AcDbEntity
8
0
100
AcDbLine
10
5.6871700000000001
20
37.923600000000008
30
0
11
5.6871700000000001
21
37.923600000000008
31
0
0
LINE
5
104
100
AcDbEntity
8
0
100
AcDbLine
10
126.399
20
71.013099999999994
30
0
11
126.399
21
71.013099999999994
31
0
0
LINE
5
105
100
AcDbEntity
8
0
100
AcDbLine
10
153.45099999999999
20
46.304900000000011
30
0
11
153.45099999999999
21
46.304900000000011
31
0
0
LINE
5
106
100
AcDbEntity
8
0
100
AcDbLine
10
104.08200000000001
20
128.36099999999999
30
0
11
104.08200000000001
21
128.36099999999999
31
0
0
LINE
5
107
100
AcDbEntity
8
0
100
AcDbLine
10
125.081
20
72.194199999999995
30
0
11
125.081
21
72.194199999999995
31
0
0
LINE
5
108
100
AcDbEntity
8
0
100
AcDbLine
10
98.222499999999997
20
129.15899999999999
30
0
11
98.222500282097741
21
127.24994258220835
31
0
0
LINE
5
109
100
AcDbEntity
8
0
100
AcDbLine
10
5.4887300000000003
20
118.203
30
0
11
5.4887300000000003
21
118.203
31
0
0
LINE
5
110
100
AcDbEntity
8
0
100
AcDbLine
10
124.64
20
120.17600000000002
30
0
11
124.64
21
120.17600000000002
31
0
0
LINE
5
111
100
AcDbEntity
8
0
100
AcDbLine
10
54.201100000000004
20
128.99100000000001
30
0
11
54.201100000000004
21
128.99100000000001
31
0
0
LINE
5
112
100
AcDbEntity
8
0
100
AcDbLine
10
0.10059700000000003
20
36.905400077712066
30
0
11
14.352333790269844
21
-58.361767512188919
31
0
0
ARC
5
113
100
AcDbEntity
8
0
100
AcDbCircle
10
20.286301766535608
20
-57.474060321358209
30
0
40
6.0000000000000124
100
AcDbArc
50
188.5082141284629
51
278.641427283788
0
LINE
5
114
100
AcDbEntity
8
0
100
AcDbLine
10
21.187803069624437
20
-63.405948334506242
30
0
11
94.848286229311412
21
-52.211363843459665
31
0
0
ARC
5
115
100
AcDbEntity
8
0
100
AcDbCircle
10
93.946784926222549
20
-46.279475830311611
30
0
40
6.00000000000004
100
AcDbArc
50
278.64142728378829
51
329.86334903610521
0
LINE
5
116
100
AcDbEntity
8
0
100
AcDbLine
10
128.68100000000001
20
1.6012800000000005
30
0
11
99.135767549424898
21
-49.291860157734746
31
0
0
LINE
5
117
100
AcDbEntity
8
0
100
AcDbLine
10
0.101975
20
118.557
30
0
11
0.101975
21
36.89618869815385
31
0
0
LINE
5
118
100
AcDbEntity
8
0
100
AcDbLine
10
4.5420100000000012
20
122.05200000000004
30
0
11
3.4320000000000004
21
121.75350000000002
31
0
0
LINE
5
119
100
AcDbEntity
8
0
100
AcDbLine
10
4.5420100000000012
20
122.05200000000004
30
0
11
2.32199
21
121.455
31
0
0
LINE
5
120
100
AcDbEntity
8
0
100
AcDbLine
10
2.32199
20
121.455
30
0
11
4.5420100000000012
21
122.05200000000004
31
0
0
SPLINE
5
121
100
AcDbEntity
8
0
100
AcDbSpline
70
1064
71
5
72
21
73
15
74
0
42
0.000000001
43
0.0000000001
44
0.0000000001
40
0
40
0
40
0
40
0
40
0
40
0
40
0.10000000000000001
40
0.20000000000000001
40
0.30000000000000004
40
0.40000000000000002
40
0.5
40
0.59999999999999998
40
0.69999999999999996
40
0.79999999999999993
40
0.89999999999999991
40
1
40
1
40
1
40
1
40
1
40
1
10
124.83000000000001
20
123.06200000000004
30
0
10
124.88889366341782
20
123.02560952143469
30
0
10
125.004283526432
20
122.95140079907283
30
0
10
125.17017615016417
20
122.83580455125595
30
0
10
125.37674341627667
20
122.67296782390574
30
0
10
125.6089269192216
20
122.45392286214044
30
0
10
125.81275878670147
20
122.21799360830306
30
0
10
125.98592503613102
20
121.96380201285997
30
0
10
126.1271619207882
20
121.69059547481808
30
0
10
126.23773196510591
20
121.39912586724134
30
0
10
126.31994873814716
20
121.09077099338172
30
0
10
126.36490023523989
20
120.83168698415668
30
0
10
126.38764587836258
20
120.63084219978663
30
0
10
126.39801450627928
20
120.49409002340882
30
0
10
126.402
20
120.42500000000001
30
0
0
LINE
5
122
100
AcDbEntity
8
0
100
AcDbLine
10
126.40200000000233
20
71.014499998750566
30
0
11
126.402
21
120.42500000000001
31
0
0
SPLINE
5
123
100
AcDbEntity
8
0
100
AcDbSpline
70
1064
71
5
72
21
73
15
74
0
42
0.000000001
43
0.0000000001
44
0.0000000001
40
0
40
0
40
0
40
0
40
0
40
0
40
0.10000000000000001
40
0.20000000000000001
40
0.30000000000000004
40
0.40000000000000002
40
0.5
40
0.59999999999999998
40
0.69999999999999996
40
0.79999999999999993
40
0.89999999999999991
40
1
40
1
40
1
40
1
40
1
40
1
10
152.053
20
48.12660000000001
30
0
10
152.13929679092337
20
48.061865026104755
30
0
10
152.30627654124183
20
47.930896472358803
30
0
10
152.53990519181377
20
47.729947962601209
30
0
10
152.81716948516785
20
47.452876133866759
30
0
10
153.10280856052029
20
47.090268139384563
30
0
10
153.32205766026669
20
46.709937416255734
30
0
10
153.46949506493502
20
46.310436642619166
30
0
10
153.54215404445279
20
45.890973853248525
30
0
10
153.54298437558521
20
45.452336487704301
30
0
10
153.47740204235339
20
44.995970336775557
30
0
10
153.3761629261202
20
44.61785745238948
30
0
10
153.27454198556251
20
44.327414444733407
30
0
10
153.19556247035959
20
44.130787344180973
30
0
10
153.15326457191881
20
44.031724163894602
30
0
0
LINE
5
124
100
AcDbEntity
8
0
100
AcDbLine
10
153.45099999999999
20
46.304900000000011
30
0
11
153.45099999999999
21
46.304900000000011
31
0
0
LINE
5
125
100
AcDbEntity
8
0
100
AcDbLine
10
152.053
20
48.12660000000001
30
0
11
152.053
21
48.12660000000001
31
0
0
LINE
5
126
100
AcDbEntity
8
0
100
AcDbLine
10
153.15326457191881
20
44.031724163894602
30
0
11
128.68208217698447
21
1.6031561673016392
31
0
0
SPLINE
5
127
100
AcDbEntity
8
0
100
AcDbSpline
70
1064
71
5
72
21
73
15
74
0
42
0.000000001
43
0.0000000001
44
0.0000000001
40
0
40
0
40
0
40
0
40
0
40
0
40
0.10000000000000001
40
0.20000000000000001
40
0.30000000000000004
40
0.40000000000000002
40
0.5
40
0.59999999999999998
40
0.69999999999999996
40
0.79999999999999993
40
0.89999999999999991
40
1
40
1
40
1
40
1
40
1
40
1
10
2.32199
20
121.455
30
0
10
2.2402522687066471
20
121.42551269326393
30
0
10
2.0800370148948608
20
121.36405191721917
30
0
10
1.8494944585199082
20
121.26440249571925
30
0
10
1.5619894522617126
20
121.1163726898819
30
0
10
1.2379996238570137
20
120.90434671702327
30
0
10
0.95256565120633829
20
120.66291890755906
30
0
10
0.70883638092993528
20
120.38968802118896
30
0
10
0.50853519288312954
20
120.08333984681073
30
0
10
0.34994941601380336
20
119.74518042919536
30
0
10
0.22993382657865447
20
119.37760824588312
30
0
10
0.16224726865119807
20
119.06194978851781
30
0
10
0.12640320935911678
20
118.81382763068675
30
0
10
0.10903048430418666
20
118.64343832449762
30
0
10
0.101975
20
118.557
30
0
0
LINE
5
128
100
AcDbEntity
8
0
100
AcDbLine
10
124.84970319259313
20
123.04975988799028
30
0
11
123.25900000000001
21
123.91300000000001
31
0
0
LINE
5
129
100
AcDbEntity
8
0
100
AcDbLine
10
56.80960000000627
20
130.87383654415913
30
0
11
56.809599999999691
21
127.68011986515269
31
0
0
LINE
5
130
100
AcDbEntity
8
0
100
AcDbLine
10
6.1000000968029555
20
114.72144128054147
30
0
11
6.0992100513372041
21
42.056921745013142
31
0
0
LINE
5
131
100
AcDbEntity
8
0
100
AcDbLine
10
120.39899979742933
20
117.25427360680806
30
0
11
120.39900000000002
21
71.013099999999994
31
0
0
LINE
5
132
100
AcDbEntity
8
0
100
AcDbLine
10
8.0992100512189928
20
40.056900000000006
30
0
11
70.068600000000032
21
40.056900000000006
31
0
0
LINE
5
133
100
AcDbEntity
8
0
100
AcDbLine
10
145.45932626909629
20
42.700131927039138
30
0
11
126.00494503976286
21
8.9713292862207226
31
0
0
LINE
5
134
100
AcDbEntity
8
0
100
AcDbLine
10
144.79978027813337
20
45.387249300830888
30
0
11
131.92106152365989
21
53.573956975780959
31
0
0
LINE
5
135
100
AcDbEntity
8
0
100
AcDbLine
10
132.92931059144505
20
58.19049912426064
30
0
11
131.42695662883713
21
55.590255713561554
31
0
0
LINE
5
136
100
AcDbEntity
8
0
100
AcDbLine
10
72.068600000000004
20
38.056900000000006
30
0
11
72.068600000000004
21
22.751285295806831
31
0
0
LINE
5
137
100
AcDbEntity
8
0
100
AcDbLine
10
73.575186380467713
20
20.813104963624077
30
0
11
123.7790592425614
21
8.0324187642505791
31
0
0
SPLINE
5
138
100
AcDbEntity
8
0
100
AcDbSpline
70
1064
71
5
72
51
73
45
74
0
42
0.000000001
43
0.0000000001
44
0.0000000001
40
0
40
0
40
0
40
0
40
0
40
0
40
0.025000000000000001
40
0.050000000000000003
40
0.075000000000000011
40
0.10000000000000001
40
0.125
40
0.14999999999999999
40
0.17499999999999999
40
0.19999999999999998
40
0.22499999999999998
40
0.24999999999999997
40
0.27499999999999997
40
0.29999999999999999
40
0.32500000000000001
40
0.35000000000000003
40
0.37500000000000006
40
0.40000000000000008
40
0.4250000000000001
40
0.45000000000000012
40
0.47500000000000014
40
0.50000000000000011
40
0.52500000000000013
40
0.55000000000000016
40
0.57500000000000018
40
0.6000000000000002
40
0.62500000000000022
40
0.65000000000000024
40
0.67500000000000027
40
0.70000000000000029
40
0.72500000000000031
40
0.75000000000000033
40
0.77500000000000036
40
0.80000000000000038
40
0.8250000000000004
40
0.85000000000000042
40
0.87500000000000044
40
0.90000000000000047
40
0.92500000000000049
40
0.95000000000000051
40
0.97500000000000053
40
1
40
1
40
1
40
1
40
1
40
1
10
4.5420100000000012
20
122.05200000000004
30
0
10
4.8157967516988789
20
122.12535877400626
30
0
10
5.3618049793290812
20
122.27135763009289
30
0
10
6.1761216069198133
20
122.48819986064241
30
0
10
7.2524751360972743
20
122.77300614503122
30
0
10
8.5824700270984682
20
123.12184681788737
30
0
10
9.8977656237714697
20
123.46364304408033
30
0
10
11.199965025485705
20
123.79868056649691
30
0
10
12.491743077358564
20
124.1274537066794
30
0
10
13.777358451231237
20
124.45076861203553
30
0
10
15.061727439563857
20
124.76956698096578
30
0
10
16.34897522608814
20
125.08464786467522
30
0
10
17.641015349099103
20
125.39639625660421
30
0
10
18.936417730219993
20
125.70456563493038
30
0
10
20.228378029214646
20
126.00789193227691
30
0
10
21.506269436434774
20
126.30438138734603
30
0
10
22.759826377098214
20
126.59209413930358
30
0
10
23.98286883282266
20
126.86984063587556
30
0
10
25.176569154767652
20
127.13779424686334
30
0
10
26.35457237081685
20
127.39844751621149
30
0
10
27.54056824418695
20
127.65616840231644
30
0
10
28.759885871201732
20
127.91564649837571
30
0
10
30.032377201973279
20
128.18058087423819
30
0
10
31.365705050719779
20
128.45243828517437
30
0
10
32.746012305421587
20
128.7287381564019
30
0
10
34.142687595138327
20
129.00389347588364
30
0
10
35.519103375283464
20
129.27113783272074
30
0
10
36.841875044328425
20
129.5241784515986
30
0
10
38.089684027037428
20
129.75878287943965
30
0
10
39.264884620582492
20
129.97483947577709
30
0
10
40.395117275285543
20
130.17670601117604
30
0
10
41.518813943225226
20
130.37078832415483
30
0
10
42.674035626128941
20
130.56370261415384
30
0
10
43.887002429365864
20
130.76036171588652
30
0
10
45.158099131708099
20
130.96169104255378
30
0
10
46.467419611816766
20
131.16531568459936
30
0
10
47.78556279239595
20
131.36705755892513
30
0
10
49.08298817135038
20
131.56219407375707
30
0
10
50.339067461014373
20
131.74670907341047
30
0
10
51.553592137484628
20
131.9188156589091
30
0
10
52.742192603765986
20
132.07861633059932
30
0
10
53.689743295304837
20
132.1974561934519
30
0
10
54.407512339373056
20
132.28209836003697
30
0
10
54.890440690382469
20
132.33662302537749
30
0
10
55.133009062162444
20
132.36340952910066
30
0
0
SPLINE
5
139
100
AcDbEntity
8
0
100
AcDbSpline
70
1064
71
5
72
41
73
35
74
0
42
0.000000001
43
0.0000000001
44
0.0000000001
40
0
40
0
40
0
40
0
40
0
40
0
40
0.033333333333333333
40
0.066666666666666666
40
0.10000000000000001
40
0.13333333333333333
40
0.16666666666666666
40
0.19999999999999998
40
0.23333333333333331
40
0.26666666666666666
40
0.29999999999999999
40
0.33333333333333331
40
0.36666666666666664
40
0.39999999999999997
40
0.43333333333333329
40
0.46666666666666662
40
0.49999999999999994
40
0.53333333333333333
40
0.56666666666666665
40
0.59999999999999998
40
0.6333333333333333
40
0.66666666666666663
40
0.69999999999999996
40
0.73333333333333328
40
0.76666666666666661
40
0.79999999999999993
40
0.83333333333333326
40
0.86666666666666659
40
0.89999999999999991
40
0.93333333333333324
40
0.96666666666666656
40
1
40
1
40
1
40
1
40
1
40
1
10
99.989752476182048
20
131.88435264599542
30
0
10
99.990010346068004
20
131.88430952483753
30
0
10
99.984397694427614
20
131.88544416076746
30
0
10
99.956773074487273
20
131.89096958440476
30
0
10
99.977390225908621
20
131.88694192594534
30
0
10
100.32996902962465
20
131.8160772879292
30
0
10
101.06089749576435
20
131.66714132175537
30
0
10
102.12790394554318
20
131.44601764673016
30
0
10
103.41413340186287
20
131.17326340862166
30
0
10
104.77460710433773
20
130.87534022001142
30
0
10
106.06837018163363
20
130.57861073241432
30
0
10
107.20224585697488
20
130.30116961856891
30
0
10
108.15152322654933
20
130.04887379040457
30
0
10
108.9365433967377
20
129.81931082991485
30
0
10
109.60883490009599
20
129.60406265918954
30
0
10
110.2332177789272
20
129.39166683225335
30
0
10
110.8730311719211
20
129.17007353133837
30
0
10
111.57102328571062
20
128.92973269534221
30
0
10
112.34384703278343
20
128.66476383565396
30
0
10
113.19031581496148
20
128.37221422161204
30
0
10
114.09577929245725
20
128.05184836452926
30
0
10
115.03809143047425
20
127.70575475087865
30
0
10
115.99249167458625
20
127.33803955739491
30
0
10
116.93772712663154
20
126.95454654074445
30
0
10
117.8571031787761
20
126.56235024578075
30
0
10
118.73750769936271
20
126.16913556201936
30
0
10
119.56911168056058
20
125.78263414094225
30
0
10
120.34482405075087
20
125.41001290407033
30
0
10
121.05987969911641
20
125.05734077244585
30
0
10
121.71141276887248
20
124.72886029324074
30
0
10
122.29801974527894
20
124.42690835349637
30
0
10
122.71502283482519
20
124.20742816882937
30
0
10
122.9984104196341
20
124.05534922533072
30
0
10
123.17430804407689
20
123.95952311859014
30
0
10
123.25900000000001
20
123.91300000000001
30
0
0
SPLINE
5
140
100
AcDbEntity
8
0
100
AcDbSpline
70
1064
71
5
72
51
73
45
74
0
42
0.000000001
43
0.0000000001
44
0.0000000001
40
0
40
0
40
0
40
0
40
0
40
0
40
0.025000000000000001
40
0.050000000000000003
40
0.075000000000000011
40
0.10000000000000001
40
0.125
40
0.14999999999999999
40
0.17499999999999999
40
0.19999999999999998
40
0.22499999999999998
40
0.24999999999999997
40
0.27499999999999997
40
0.29999999999999999
40
0.32500000000000001
40
0.35000000000000003
40
0.37500000000000006
40
0.40000000000000008
40
0.4250000000000001
40
0.45000000000000012
40
0.47500000000000014
40
0.50000000000000011
40
0.52500000000000013
40
0.55000000000000016
40
0.57500000000000018
40
0.6000000000000002
40
0.62500000000000022
40
0.65000000000000024
40
0.67500000000000027
40
0.70000000000000029
40
0.72500000000000031
40
0.75000000000000033
40
0.77500000000000036
40
0.80000000000000038
40
0.8250000000000004
40
0.85000000000000042
40
0.87500000000000044
40
0.90000000000000047
40
0.92500000000000049
40
0.95000000000000051
40
0.97500000000000053
40
1
40
1
40
1
40
1
40
1
40
1
10
7.5915615095794973
20
116.65571274058863
30
0
10
7.7866250722522468
20
116.70698712558729
30
0
10
8.1724270158835672
20
116.80827420546819
30
0
10
8.7381570939108606
20
116.95642044865278
30
0
10
9.4742426556288919
20
117.1483096247687
30
0
10
10.405577006370507
20
117.38912023752705
30
0
10
11.395105515809988
20
117.64247869541231
30
0
10
12.47949300386952
20
117.91728005409874
30
0
10
13.66638702457003
20
118.21498083295209
30
0
10
14.939631269539513
20
118.53099590183035
30
0
10
16.268684703559899
20
118.85716933845569
30
0
10
17.616778109423155
20
119.18393115846402
30
0
10
18.948941006305397
20
119.50240106728479
30
0
10
20.241612194799146
20
119.80694925038512
30
0
10
21.485119334645827
20
120.09573595058258
30
0
10
22.680200245769665
20
120.36957635440849
30
0
10
23.836318916340787
20
120.63129305972311
30
0
10
24.969200763020645
20
120.88488922715516
30
0
10
26.09894240549956
20
121.13477977447008
30
0
10
27.247192179586236
20
121.38509583466664
30
0
10
28.433318954411103
20
121.63920632670907
30
0
10
29.670551408607725
20
121.89914234717959
30
0
10
30.962641571048785
20
122.1651428281376
30
0
10
32.298973857616488
20
122.43493088798972
30
0
10
33.654832127845403
20
122.70383570153146
30
0
10
34.999792255298566
20
122.96623356696814
30
0
10
36.304127891938791
20
123.21666659357065
30
0
10
37.546107180037126
20
123.45110737175091
30
0
10
38.718715618928471
20
123.66812839891185
30
0
10
39.837289027802505
20
123.87022773814407
30
0
10
40.931065710415268
20
124.06238290513899
30
0
10
42.03372124881399
20
124.25043169468407
30
0
10
43.174733052099299
20
124.43959192450092
30
0
10
44.3693871412204
20
124.63275911145635
30
0
10
45.612350775333937
20
124.82938605841784
30
0
10
46.886190266282341
20
125.02679869034338
30
0
10
48.167716218183926
20
125.22115692700724
30
0
10
49.435093438462005
20
125.40854120636675
30
0
10
50.674732604435839
20
125.58599912925612
30
0
10
51.887989620026346
20
125.75256969030769
30
0
10
53.085457963489773
20
125.90861203432739
30
0
10
54.042423610791559
20
126.02587493751093
30
0
10
54.765442572729
20
126.11007548134452
30
0
10
55.250628747932858
20
126.1646225081742
30
0
10
55.494015202263974
20
126.19149935166895
30
0
0
SPLINE
5
141
100
AcDbEntity
8
0
100
AcDbSpline
70
1064
71
5
72
36
73
30
74
0
42
0.000000001
43
0.0000000001
44
0.0000000001
40
0
40
0
40
0
40
0
40
0
40
0
40
0.040000000000000001
40
0.080000000000000002
40
0.12
40
0.16
40
0.20000000000000001
40
0.24000000000000002
40
0.28000000000000003
40
0.32000000000000001
40
0.35999999999999999
40
0.39999999999999997
40
0.43999999999999995
40
0.47999999999999993
40
0.51999999999999991
40
0.55999999999999994
40
0.59999999999999998
40
0.64000000000000001
40
0.68000000000000005
40
0.72000000000000008
40
0.76000000000000012
40
0.80000000000000016
40
0.84000000000000019
40
0.88000000000000023
40
0.92000000000000026
40
0.9600000000000003
40
1
40
1
40
1
40
1
40
1
40
1
10
99.461700396161262
20
125.77278897988842
30
0
10
99.50539032943972
20
125.76548312289123
30
0
10
99.586531989712824
20
125.7519124631272
30
0
10
99.689654556610833
20
125.73465503072646
30
0
10
99.825684459938046
20
125.71070388452443
30
0
10
100.15591952812329
20
125.64649690185104
30
0
10
100.74529604402966
20
125.52758994837697
30
0
10
101.59672781505338
20
125.35227501380744
30
0
10
102.65741585538819
20
125.12969059507348
30
0
10
103.8369513912715
20
124.87632702945866
30
0
10
105.03488145884943
20
124.61066738187128
30
0
10
106.1618789061
20
124.34908995713194
30
0
10
107.1687840292863
20
124.10022767503568
30
0
10
108.05331649915749
20
123.86371521654199
30
0
10
108.84185459513093
20
123.6338380516422
30
0
10
109.57824156645603
20
123.40180266083453
30
0
10
110.30950191389208
20
123.15863215616731
30
0
10
111.07416582375038
20
122.89752878231921
30
0
10
111.88644611532339
20
122.61712993728128
30
0
10
112.73782849257574
20
122.32100826459049
30
0
10
113.60653768313087
20
122.01546905385199
30
0
10
114.46428841501614
20
121.70793893611226
30
0
10
115.28417629401923
20
121.40510239144345
30
0
10
116.04779849333136
20
121.11121457740003
30
0
10
116.75352248906623
20
120.82613155300463
30
0
10
117.41103551526565
20
120.54678775897219
30
0
10
117.91019202528921
20
120.32448202108584
30
0
10
118.27560084913694
20
120.15666232784064
30
0
10
118.51610167590856
20
120.04405221912381
30
0
10
118.63557589904916
20
119.98756456699863
30
0
0
ARC
5
142
100
AcDbEntity
8
0
100
AcDbCircle
10
55.309600000006263
20
130.8738365441622
30
0
40
1.5000000000000036
100
AcDbArc
50
0
51
96.760938047709061
0
ARC
5
143
100
AcDbEntity
8
0
100
AcDbCircle
10
99.722500000055661
20
130.40835260737606
30
0
40
1.5000000000000062
100
AcDbArc
50
79.736912380906915
51
180
0
ARC
5
144
100
AcDbEntity
8
0
100
AcDbCircle
10
8.1000000966847381
20
114.72141953552834
30
0
40
1.9999999999999947
100
AcDbArc
50
104.72732956169901
51
179.99937705173647
0
ARC
5
145
100
AcDbEntity
8
0
100
AcDbCircle
10
8.0992100512189928
20
42.056900000000006
30
0
40
2.0000000000000009
100
AcDbArc
50
179.99937705173647
51
270
0
ARC
5
146
100
AcDbEntity
8
0
100
AcDbCircle
10
55.309599999999691
20
127.68011986515577
30
0
40
1.4999999999999891
100
AcDbArc
50
277.06200912401124
51
360
0
ARC
5
147
100
AcDbEntity
8
0
100
AcDbCircle
10
99.722500282186047
20
127.24994280378404
30
0
40
1.5000000000883227
100
AcDbArc
50
180.00000845192784
51
259.98729255655559
0
ARC
5
148
100
AcDbEntity
8
0
100
AcDbCircle
10
117.39899979742931
20
117.2542735936658
30
0
40
3.0000000000000071
100
AcDbArc
50
0
51
65.657390479832216
0
ARC
5
149
100
AcDbEntity
8
0
100
AcDbCircle
10
132.72575616368957
20
54.839842648465321
30
0
40
1.5000000000000098
100
AcDbArc
50
149.98177954918401
51
237.55681069420592
0
ARC
5
150
100
AcDbEntity
8
0
100
AcDbCircle
10
143.72685409142716
20
43.699401737251748
30
0
40
1.9999999999999953
100
AcDbArc
50
-29.975848454393418
51
57.556810694206469
0
ARC
5
151
100
AcDbEntity
8
0
100
AcDbCircle
10
70.068600000000032
20
38.056900000000027
30
0
40
1.9999999999999751
100
AcDbArc
50
0
51
90
0
ARC
5
152
100
AcDbEntity
8
0
100
AcDbCircle
10
74.068600000000004
20
22.751285295806831
30
0
40
2.0000000000000018
100
AcDbArc
50
180
51
255.71727665765735
0
ARC
5
153
100
AcDbEntity
8
0
100
AcDbCircle
10
124.27247286209371
20
9.9705990964333537
30
0
40
2.0000000000000258
100
AcDbArc
50
255.71727665765718
51
330.02415154560617
0
LINE
5
154
100
AcDbEntity
8
0
100
AcDbLine
10
120.39900000000002
20
71.013099999999994
30
0
11
120.39899992957537
21
69.319703294094893
31
0
0
LINE
5
155
100
AcDbEntity
8
0
100
AcDbLine
10
120.98884938880883
20
68.127383646558954
30
0
11
121.94370360271392
21
67.39850097956284
31
0
0
ARC
5
156
100
AcDbEntity
8
0
100
AcDbCircle
10
123.15723765706929
20
68.988260426435119
30
0
40
1.9999999999999574
100
AcDbArc
50
232.64389669893816
51
333.52019691261387
0
ARC
5
157
100
AcDbEntity
8
0
100
AcDbCircle
10
134.22811012629748
20
57.440086059164415
30
0
40
1.5000000000000173
100
AcDbArc
50
62.72108363880421
51
149.98177954918424
0
LINE
5
158
100
AcDbEntity
8
0
100
AcDbLine
10
134.91559392284799
20
58.773264977944848
30
0
11
152.053
21
48.12660000000001
31
0
0
LINE
5
159
100
AcDbEntity
8
0
100
AcDbLine
10
124.9474208408637
20
68.096495789067419
30
0
11
126.40200000000233
21
71.014499998750566
31
0
0
ARC
5
160
100
AcDbEntity
8
0
100
AcDbCircle
10
121.89899992957527
20
69.319703231713135
30
0
40
1.4999999999998981
100
AcDbArc
50
179.99999758516347
51
232.6438966989401
0
CIRCLE
5
161
100
AcDbEntity
8
0
100
AcDbCircle
10
3.8075300000000007
20
118.20250000000001
30
0
40
1.6795000000000027
0
CIRCLE
5
162
100
AcDbEntity
8
0
100
AcDbCircle
10
52.521200000000007
20
128.9915
30
0
40
1.6794999999999938
0
CIRCLE
5
163
100
AcDbEntity
8
0
100
AcDbCircle
10
4.0059699999999996
20
37.9236
30
0
40
1.6799000000000008
0
CIRCLE
5
164
100
AcDbEntity
8
0
100
AcDbCircle
10
69.777000000000001
20
19.056899999999999
30
0
40
1.6798000000000002
0
CIRCLE
5
165
100
AcDbEntity
8
0
100
AcDbCircle
10
102.40100000000001
20
128.36150000000001
30
0
40
1.6795000000000027
0
CIRCLE
5
166
100
AcDbEntity
8
0
100
AcDbCircle
10
122.958
20
120.17600000000002
30
0
40
1.6799999999999926
0
CIRCLE
5
167
100
AcDbEntity
8
0
100
AcDbCircle
10
123.399
20
72.194050000000004
30
0
40
1.6797499999999976
0
CIRCLE
5
168
100
AcDbEntity
8
0
100
AcDbCircle
10
135.58000000000001
20
54.643349999999998
30
0
40
1.6797500000000021
0
CIRCLE
5
169
100
AcDbEntity
8
0
100
AcDbCircle
10
149.34399999999999
20
45.192050000000002
30
0
40
1.6804500000000022
0
CIRCLE
5
170
100
AcDbEntity
8
0
100
AcDbCircle
10
125.80200000000002
20
4.2994750000000002
30
0
40
1.6798250000000003
0
CIRCLE
5
171
100
AcDbEntity
8
0
100
AcDbCircle
10
19.698540205542862
20
-59.326984196238058
30
0
40
1.6800000000000028
0
CIRCLE
5
172
100
AcDbEntity
8
0
100
AcDbCircle
10
94.783481006985483
20
-47.895106375329917
30
0
40
1.6800000000000015
0
CIRCLE
5
173
100
AcDbEntity
8
0
100
AcDbCircle
10
5.1596829017528059
20
29.048988620441769
30
0
40
1.6800000000000015
0
ENDSEC
0
SECTION
2
OBJECTS
0
DICTIONARY
5
C
100
AcDbDictionary
3
ACAD_GROUP
350
D
3
ACAD_MLINESTYLE
350
17
0
DICTIONARY
5
D
100
AcDbDictionary
0
DICTIONARY
5
1A
330
C
100
AcDbDictionary
0
DICTIONARY
5
17
100
AcDbDictionary
0
ENDSEC
0
EOF
