0
SECTION
2
HEADER
9
$INSUNITS
70
4
9
$ACADVER
1
AC1014
9
$HANDSEED
5
FFFF
0
ENDSEC
0
SECTION
2
TABLES
0
TABLE
2
VPORT
5
8
100
AcDbSymbolTable
0
ENDTAB
0
TABLE
2
LTYPE
5
5
100
AcDbSymbolTable
0
LTYPE
5
14
100
AcDbSymbolTableRecord
100
AcDbLinetypeTableRecord
2
BYBLOCK
70
0
0
LTYPE
5
15
100
AcDbSymbolTableRecord
100
AcDbLinetypeTableRecord
2
BYLAYER
70
0
0
ENDTAB
0
TABLE
2
LAYER
5
2
100
AcDbSymbolTable
70
2
0
LAYER
5
50
100
AcDbSymbolTableRecord
100
AcDbLayerTableRecord
2
0
70
0
6
CONTINUOUS
0
ENDTAB
0
TABLE
2
STYLE
5
3
100
AcDbSymbolTable
70
1
0
STYLE
5
11
100
AcDbSymbolTableRecord
100
AcDbTextStyleTableRecord
2
STANDARD
70
0
0
ENDTAB
0
TABLE
2
VIEW
5
6
100
AcDbSymbolTable
70
0
0
ENDTAB
0
TABLE
2
UCS
5
7
100
AcDbSymbolTable
70
0
0
ENDTAB
0
TABLE
2
APPID
5
9
100
AcDbSymbolTable
70
2
0
APPID
5
12
100
AcDbSymbolTableRecord
100
AcDbRegAppTableRecord
2
ACAD
70
0
0
ENDTAB
0
TABLE
2
DIMSTYLE
5
A
100
AcDbSymbolTable
70
1
0
ENDTAB
0
TABLE
2
BLOCK_RECORD
5
1
100
AcDbSymbolTable
70
1
0
BLOCK_RECORD
5
1F
100
AcDbSymbolTableRecord
100
AcDbBlockTableRecord
2
*MODEL_SPACE
0
BLOCK_RECORD
5
1B
100
AcDbSymbolTableRecord
100
AcDbBlockTableRecord
2
*PAPER_SPACE
0
ENDTAB
0
ENDSEC
0
SECTION
2
BLOCKS
0
BLOCK
5
20
100
AcDbEntity
100
AcDbBlockBegin
2
*MODEL_SPACE
0
ENDBLK
5
21
100
AcDbEntity
100
AcDbBlockEnd
0
BLOCK
5
1C
100
AcDbEntity
100
AcDbBlockBegin
2
*PAPER_SPACE
0
ENDBLK
5
1D
100
AcDbEntity
100
AcDbBlockEnd
0
ENDSEC
0
SECTION
2
ENTITIES
0
ARC
5
100
100
AcDbEntity
8
0
100
AcDbCircle
10
93.944282077176297
20
-46.283787484654511
30
0
40
6.000000000002804
100
AcDbArc
50
278.64148239914067
51
329.86333991468615
0
LINE
5
101
100
AcDbEntity
8
0
100
AcDbLine
10
152.05500000000001
20
48.128100000000003
30
0
11
152.05500000000001
21
48.128100000000003
31
0
0
LINE
5
102
100
AcDbEntity
8
0
100
AcDbLine
10
0.101975
20
36.89618869815385
30
0
11
14.349830849113427
21
-58.366079435456307
31
0
0
LINE
5
103
100
AcDbEntity
8
0
100
AcDbLine
10
2.3219900009582557
20
121.45499999857006
30
0
11
4.5420100004477995
21
122.05199999833484
31
0
0
LINE
5
104
100
AcDbEntity
8
0
100
AcDbLine
10
128.69664550921578
20
1.6285561294133675
30
0
11
99.133264220812976
21
-49.296172638158751
31
0
0
LINE
5
105
100
AcDbEntity
8
0
100
AcDbLine
10
126.40199992699507
20
71.014499999999998
30
0
11
126.40199987534631
21
120.42500000000001
31
0
0
LINE
5
106
100
AcDbEntity
8
0
100
AcDbLine
10
153.45100001241423
20
46.305144534810061
30
0
11
153.45100001241423
21
46.305144534810061
31
0
0
ARC
5
107
100
AcDbEntity
8
0
100
AcDbCircle
10
20.283798770849945
20
-57.478371880119511
30
0
40
6.0000000000000036
100
AcDbArc
50
188.50821764797297
51
278.64143019836183
0
LINE
5
108
100
AcDbEntity
8
0
100
AcDbLine
10
128.67850806673161
20
1.5972053906716519
30
0
11
153.20961245334308
21
43.999448448956706
31
0
0
LINE
5
109
100
AcDbEntity
8
0
100
AcDbLine
10
0.10197672537904515
20
118.55700000055108
30
0
11
0.101975
21
36.89618869815385
31
0
0
LINE
5
110
100
AcDbEntity
8
0
100
AcDbLine
10
21.185300375687447
20
-63.410259847409137
30
0
11
94.845789086411415
21
-52.215674630608447
31
0
0
LINE
5
111
100
AcDbEntity
8
0
100
AcDbLine
10
124.83000000000001
20
123.06200000000004
30
0
11
124.04400000000001
21
123.48700000000001
31
0
0
LINE
5
112
100
AcDbEntity
8
0
100
AcDbLine
10
124.04400000000001
20
123.48700000000001
30
0
11
123.25900000000001
21
123.91300000000001
31
0
0
LINE
5
113
100
AcDbEntity
8
0
100
AcDbLine
10
153.20961245334308
20
43.999448448956706
30
0
11
128.67850806673161
21
1.5972053906716519
31
0
0
SPLINE
5
114
100
AcDbEntity
8
0
100
AcDbSpline
70
1064
71
5
72
21
73
15
74
0
42
0.000000001
43
0.0000000001
44
0.0000000001
40
0
40
0
40
0
40
0
40
0
40
0
40
0.10000000000000001
40
0.20000000000000001
40
0.30000000000000004
40
0.40000000000000002
40
0.5
40
0.59999999999999998
40
0.69999999999999996
40
0.79999999999999993
40
0.89999999999999991
40
1
40
1
40
1
40
1
40
1
40
1
10
152.05299550628371
20
48.126841076728795
30
0
10
152.13840418499507
20
48.062405460344557
30
0
10
152.30377888758792
20
47.931951304590669
30
0
10
152.53551345688734
20
47.731521441575985
30
0
10
152.81129652917787
20
47.454626911121089
30
0
10
153.09694674102275
20
47.091326523209752
30
0
10
153.31825240359052
20
46.709312388198818
30
0
10
153.4699842433952
20
46.307063642197733
30
0
10
153.54932716379113
20
45.883761552192638
30
0
10
153.55919322690997
20
45.440253052302324
30
0
10
153.50484451134065
20
44.978068547337813
30
0
10
153.41421826661502
20
44.594608793074755
30
0
10
153.32141522202349
20
44.299791528175653
30
0
10
153.24868958989293
20
44.100089091110846
30
0
10
153.20961245334308
20
43.999448448956706
30
0
0
SPLINE
5
115
100
AcDbEntity
8
0
100
AcDbSpline
70
1064
71
5
72
21
73
15
74
0
42
0.000000001
43
0.0000000001
44
0.0000000001
40
0
40
0
40
0
40
0
40
0
40
0
40
0.10000000000000001
40
0.20000000000000001
40
0.30000000000000004
40
0.40000000000000002
40
0.5
40
0.59999999999999998
40
0.69999999999999996
40
0.79999999999999993
40
0.89999999999999991
40
1
40
1
40
1
40
1
40
1
40
1
10
124.83000000000001
20
123.06200000000004
30
0
10
124.88889366542833
20
123.02560952173528
30
0
10
125.00428353207604
20
122.9514007999493
30
0
10
125.17017616009662
20
122.83580455291998
30
0
10
125.37674342956245
20
122.67296782646528
30
0
10
125.60892693247338
20
122.45392286554336
30
0
10
125.81275879529316
20
122.21799361224851
30
0
10
125.9859250350286
20
121.96380201701722
30
0
10
126.1271619047008
20
121.6905954788256
30
0
10
126.23773192890789
20
121.3991258707365
30
0
10
126.31994867708244
20
121.09077099602973
30
0
10
126.36490015078068
20
120.83168698588382
30
0
10
126.38764577451209
20
120.63084220069781
30
0
10
126.39801438869446
20
120.49409002372161
30
0
10
126.40199987534631
20
120.42500000000001
30
0
0
SPLINE
5
116
100
AcDbEntity
8
0
100
AcDbSpline
70
1064
71
5
72
21
73
15
74
0
42
0.000000001
43
0.0000000001
44
0.0000000001
40
0
40
0
40
0
40
0
40
0
40
0
40
0.10000000000000001
40
0.20000000000000001
40
0.30000000000000004
40
0.40000000000000002
40
0.5
40
0.59999999999999998
40
0.69999999999999996
40
0.79999999999999993
40
0.89999999999999991
40
1
40
1
40
1
40
1
40
1
40
1
10
2.3219900009582557
20
121.45499999857006
30
0
10
2.2402522430898477
20
121.4255126965185
30
0
10
2.0800369413904103
20
121.36405192948742
30
0
10
1.8494943289705332
20
121.26440252044226
30
0
10
1.5619892800854704
20
121.11637272904346
30
0
10
1.237999455588465
20
120.90434677033829
30
0
10
0.95256554938536064
20
120.6629189706173
30
0
10
0.70883641357267868
20
120.38968808895279
30
0
10
0.50853543167382464
20
120.0833399133935
30
0
10
0.34994993063499041
20
119.74518048832624
30
0
10
0.22993468180023433
20
119.37760829151688
30
0
10
0.16224844409304023
20
119.06194981879268
30
0
10
0.12640465013895663
20
118.81382764702481
30
0
10
0.10903211298241496
20
118.64343833048727
30
0
10
0.10197672537904584
20
118.55700000055114
30
0
0
CIRCLE
5
117
100
AcDbEntity
8
0
100
AcDbCircle
10
3.81027
20
118.20399999999999
30
0
40
1.0500600000000002
0
CIRCLE
5
118
100
AcDbEntity
8
0
100
AcDbCircle
10
52.522450000000006
20
128.99200000000002
30
0
40
1.0500500000000024
0
CIRCLE
5
119
100
AcDbEntity
8
0
100
AcDbCircle
10
25.153350000000003
20
97.206900000000019
30
0
40
1.0500500000000001
0
CIRCLE
5
120
100
AcDbEntity
8
0
100
AcDbCircle
10
102.40300000000002
20
128.363
30
0
40
1.0499999999999954
0
CIRCLE
5
121
100
AcDbEntity
8
0
100
AcDbCircle
10
101.35300000000001
20
100.779
30
0
40
1.0499999999999954
0
CIRCLE
5
122
100
AcDbEntity
8
0
100
AcDbCircle
10
122.96100000000001
20
120.17700000000002
30
0
40
1.0500000000000043
0
CIRCLE
5
123
100
AcDbEntity
8
0
100
AcDbCircle
10
123.40200000000002
20
72.195300000000003
30
0
40
1.0500000000000043
0
CIRCLE
5
124
100
AcDbEntity
8
0
100
AcDbCircle
10
101.35300000000001
20
62.678700000000006
30
0
40
1.0499999999999954
0
CIRCLE
5
125
100
AcDbEntity
8
0
100
AcDbCircle
10
25.162347069506747
20
59.009518569006509
30
0
40
1.045597602900338
0
CIRCLE
5
126
100
AcDbEntity
8
0
100
AcDbCircle
10
135.58099999999999
20
54.645299999999999
30
0
40
1.0500002333333027
0
CIRCLE
5
127
100
AcDbEntity
8
0
100
AcDbCircle
10
149.345
20
45.194000000000003
30
0
40
1.0500000000000131
0
CIRCLE
5
128
100
AcDbEntity
8
0
100
AcDbCircle
10
117.99050000000001
20
35.9131
30
0
40
1.0504999999999942
0
CIRCLE
5
129
100
AcDbEntity
8
0
100
AcDbCircle
10
69.779650000000004
20
19.058299999999999
30
0
40
1.0500499999999979
0
CIRCLE
5
130
100
AcDbEntity
8
0
100
AcDbCircle
10
4.008705
20
37.924999999999997
30
0
40
1.050055
0
CIRCLE
5
131
100
AcDbEntity
8
0
100
AcDbCircle
10
94.783481006985483
20
-47.895106375329917
30
0
40
1.0500000000000043
0
CIRCLE
5
132
100
AcDbEntity
8
0
100
AcDbCircle
10
19.698540205542862
20
-59.326984196238058
30
0
40
1.0499999999999998
0
CIRCLE
5
133
100
AcDbEntity
8
0
100
AcDbCircle
10
125.80500000000001
20
4.3008499999999996
30
0
40
1.0500000000000043
0
SPLINE
5
134
100
AcDbEntity
8
0
100
AcDbSpline
70
1064
71
3
72
8
73
4
74
0
42
0.000000001
43
0.0000000001
44
0.0000000001
40
0
40
0
40
0
40
0
40
1
40
1
40
1
40
1
10
126.85500000000002
20
4.3008499999999996
30
0
10
126.85500000000002
20
3.7207100000000004
30
0
10
126.38400000000001
20
3.2507900000000007
30
0
10
125.80500000000001
20
3.2507900000000007
30
0
0
LINE
5
135
100
AcDbEntity
8
0
100
AcDbLine
10
135.11751344262393
20
58.645474846617049
30
0
11
152.05307069243048
21
48.126784352499328
31
0
0
SPLINE
5
136
100
AcDbEntity
8
0
100
AcDbSpline
70
1064
71
5
72
31
73
25
74
0
42
0.000000001
43
0.0000000001
44
0.0000000001
40
0
40
0
40
0
40
0
40
0
40
0
40
0.050000000000000003
40
0.10000000000000001
40
0.15000000000000002
40
0.20000000000000001
40
0.25
40
0.29999999999999999
40
0.34999999999999998
40
0.39999999999999997
40
0.44999999999999996
40
0.49999999999999994
40
0.54999999999999993
40
0.59999999999999998
40
0.65000000000000002
40
0.70000000000000007
40
0.75000000000000011
40
0.80000000000000016
40
0.8500000000000002
40
0.90000000000000024
40
0.95000000000000029
40
1
40
1
40
1
40
1
40
1
40
1
10
126.40199992699507
20
71.014499999999998
30
0
10
126.40582328079928
20
70.834252637753224
30
0
10
126.42057747728045
20
70.475750681825687
30
0
10
126.46403106134854
20
69.943976053287514
30
0
10
126.56478930110907
20
69.246948607733316
30
0
10
126.76274938601091
20
68.396106471483108
30
0
10
127.03288421634946
20
67.566503799617067
30
0
10
127.37405748555548
20
66.759348438463334
30
0
10
127.78308770443695
20
65.976281910834032
30
0
10
128.25358027851766
20
65.219418520989947
30
0
10
128.77587353881816
20
64.491270935017084
30
0
10
129.33831688022536
20
63.794539734832796
30
0
10
129.92811144322661
20
63.13191730342745
30
0
10
130.5322690932411
20
62.505845726689429
30
0
10
131.13845008859116
20
61.918271060788854
30
0
10
131.73591278093286
20
61.370306776844473
30
0
10
132.31558892046502
20
60.862395344080525
30
0
10
132.87006507891931
20
60.394505205385954
30
0
10
133.39364918078368
20
59.966262767674046
30
0
10
133.88243587487304
20
59.577064449133104
30
0
10
134.33448944821509
20
59.226138313693767
30
0
10
134.66627874138538
20
58.975413529917418
30
0
10
134.8983797856869
20
58.804002380476405
30
0
10
135.04570388764
20
58.697090343799452
30
0
10
135.11751344262393
20
58.645474846617049
30
0
0
CIRCLE
5
137
100
AcDbEntity
8
0
100
AcDbCircle
10
5.1596829017528059
20
29.048988620441769
30
0
40
1.0500000000000005
0
SPLINE
5
138
100
AcDbEntity
8
0
100
AcDbSpline
70
1064
71
5
72
51
73
45
74
0
42
0.000000001
43
0.0000000001
44
0.0000000001
40
0
40
0
40
0
40
0
40
0
40
0
40
0.025000000000000001
40
0.050000000000000003
40
0.075000000000000011
40
0.10000000000000001
40
0.125
40
0.14999999999999999
40
0.17499999999999999
40
0.19999999999999998
40
0.22499999999999998
40
0.24999999999999997
40
0.27499999999999997
40
0.29999999999999999
40
0.32500000000000001
40
0.35000000000000003
40
0.37500000000000006
40
0.40000000000000008
40
0.4250000000000001
40
0.45000000000000012
40
0.47500000000000014
40
0.50000000000000011
40
0.52500000000000013
40
0.55000000000000016
40
0.57500000000000018
40
0.6000000000000002
40
0.62500000000000022
40
0.65000000000000024
40
0.67500000000000027
40
0.70000000000000029
40
0.72500000000000031
40
0.75000000000000033
40
0.77500000000000036
40
0.80000000000000038
40
0.8250000000000004
40
0.85000000000000042
40
0.87500000000000044
40
0.90000000000000047
40
0.92500000000000049
40
0.95000000000000051
40
0.97500000000000053
40
1
40
1
40
1
40
1
40
1
40
1
10
4.5420100004477995
20
122.05199999833484
30
0
10
5.1572654628582839
20
122.21862343233019
30
0
10
6.3880532329579731
20
122.5497129889948
30
0
10
8.23506536961
20
123.03987537887535
30
0
10
10.699411345536493
20
123.68046826303288
30
0
10
13.782414710929986
20
124.45945246094398
30
0
10
16.867377110724114
20
125.21632827352177
30
0
10
19.953044595841583
20
125.9504893655393
30
0
10
23.037344416000856
20
126.6610219464734
30
0
10
26.117063945422807
20
127.3466211190201
30
0
10
29.188336442932638
20
128.00568657582178
30
0
10
32.24736041804541
20
128.63647249434689
30
0
10
35.291083713171588
20
129.23722665620713
30
0
10
38.31781071314375
20
129.80632173485864
30
0
10
41.328083807971005
20
130.3424272991806
30
0
10
44.324432945804197
20
130.84451426194232
30
0
10
47.310309954330798
20
131.31173333414299
30
0
10
50.289226636358165
20
131.74333551214193
30
0
10
53.263899209964492
20
132.13857328048539
30
0
10
56.235170790820838
20
132.49662460234458
30
0
10
59.201939058952782
20
132.81646272764203
30
0
10
62.161901616590185
20
133.09670303119773
30
0
10
65.112090292141801
20
133.33543091858337
30
0
10
68.049425743858933
20
133.53009625561708
30
0
10
70.971420614690942
20
133.67723493708215
30
0
10
73.876080111208807
20
133.77294113624615
30
0
10
76.761337522704011
20
133.81375370470784
30
0
10
79.624580920808427
20
133.79747986264053
30
0
10
82.462258864599548
20
133.72392116498924
30
0
10
85.269143163948286
20
133.59599772275132
30
0
10
88.040406077152525
20
133.41773842711393
30
0
10
90.77440552872693
20
133.1915155982623
30
0
10
93.475049662023878
20
132.91570663317026
30
0
10
96.154796044425069
20
132.58178136434279
30
0
10
98.836101405243909
20
132.17277397425227
30
0
10
101.54682190262109
20
131.66711619244106
30
0
10
104.3163622421411
20
131.04180401431367
30
0
10
107.17187097431362
20
130.27554760627663
30
0
10
110.13359703601667
20
129.35261320561935
30
0
10
113.21434132724995
20
128.26326881220564
30
0
10
116.4215555352436
20
127.00203166738198
30
0
10
119.09119769381488
20
125.8536951006767
30
0
10
121.15224871040229
20
124.9138713226656
30
0
10
122.55239713165894
20
124.25243785253923
30
0
10
123.25900000000001
20
123.91300000000001
30
0
0
ENDSEC
0
SECTION
2
OBJECTS
0
DICTIONARY
5
C
100
AcDbDictionary
3
ACAD_GROUP
350
D
3
ACAD_MLINESTYLE
350
17
0
DICTIONARY
5
D
100
AcDbDictionary
0
DICTIONARY
5
1A
330
C
100
AcDbDictionary
0
DICTIONARY
5
17
100
AcDbDictionary
0
ENDSEC
0
EOF
